<?xml version="1.0" encoding="UTF-8"?>
<svg id="Capa_1" data-name="Capa 1" xmlns="http://www.w3.org/2000/svg" viewBox="0 0 511.02 299.52">
  <defs>
    <style>
      .cls-1 {
        fill: #fff;
        stroke-width: 0px;
      }
    </style>
  </defs>
  <path class="cls-1" d="M511.02,237.6c-.99,4.01-1.82,8.07-2.99,12.03-8.62,29.06-35.49,49.74-65.72,49.77-124.57.14-249.14.17-373.71-.02-35.75-.05-65.75-28.81-68.46-64.52-1.19-15.75,5.06-27.04,19.83-33.69,0-13.88.07-27.84-.11-41.79-.02-1.23-1.38-2.83-2.55-3.59C4.17,147.23-.24,135.87,3.84,120.64c6.05-22.6,18.97-40.79,36.23-56.13,4.49-3.99,10.66-3.59,14.32.48,3.72,4.14,3.54,10.03-1.03,14.25-10.73,9.93-19.99,20.93-25.87,34.43-1.91,4.39-3.44,9-4.68,13.63-1.71,6.37,2.06,11.61,8.57,12.41,1.31.16,2.66.09,3.99.09,146.69,0,293.38.01,440.07-.05,2.75,0,5.82-.22,8.19-1.42,4.23-2.14,5.99-5.82,4.74-10.84-4.14-16.62-12.89-30.53-24.89-42.47-18.62-18.52-41.28-30.52-65.44-40.02-2.72-1.07-5.48-2.04-9.26-3.44,1.82,5.13,3.29,9.27,4.74,13.41,5.91,16.88-1.68,33.88-17.65,39.55-15.84,5.63-32.38-2.46-38.53-19-5.73-15.41-11.38-30.84-16.83-46.34-1.15-3.26-2.74-4.81-6.22-5.13-10.73-.98-21.44-2.24-33.03-3.48,4.5,12.37,8.83,23.8,12.81,35.34,5.77,16.73-3,34.11-19.45,39.03-15.44,4.61-31.07-3.3-36.93-18.96-6.16-16.48-12.16-33.03-18-49.63-1.17-3.33-2.55-4.85-6.31-4.29-9.82,1.46-19.69,2.59-29.97,3.9,3.54,9.7,6.87,18.72,10.12,27.77,6.35,17.72-.77,34.72-16.99,40.67-16.29,5.98-32.71-2.38-39.23-20.01-4.08-11.04-8.08-22.11-12.25-33.51-1.78.48-3.34.87-4.88,1.32-5.93,1.72-11.25-.62-13.08-5.79-1.94-5.46.67-11.11,6.75-13.04,12.18-3.85,24.36-7.87,36.78-10.79,80.6-18.98,160.57-16.71,239.59,8.48,29.51,9.4,57.12,22.68,80.63,43.37,18.03,15.86,31.16,34.9,36.98,58.48,3.21,13.04-1.74,25.27-13.22,32.15-2.92,1.75-3.65,3.58-3.61,6.68.15,11.97.01,23.95.13,35.92.01,1.43.52,3.71,1.46,4.14,10.02,4.56,15.61,12.55,18.44,22.83v12.97ZM255.47,223.69c-10.69,10.75-20.75,20.91-30.86,31.02-6.54,6.54-11.39,6.57-17.91.1-10.85-10.79-21.58-21.7-32.56-32.36-1.57-1.52-4.24-2.68-6.4-2.69-45.24-.15-90.48-.13-135.71-.1-8.63,0-12.34,4.03-11.97,12.75,1.11,25.85,22.99,47.02,49.54,47.05,123.91.14,247.81.13,371.72,0,25.85-.03,46.63-19.24,49.54-44.95,1.19-10.51-2.68-14.87-13.23-14.87-44.41,0-88.81.04-133.22-.08-3.42,0-5.86.89-8.28,3.36-10.69,10.94-21.54,21.74-32.41,32.5-5.67,5.62-10.74,5.56-16.49.05-1.56-1.5-3.07-3.05-4.59-4.58-8.9-8.92-17.81-17.84-27.16-27.21ZM215.36,233.95c24.53-24.53,49.33-49.34,73.73-73.74h-147.38c24.69,24.72,49.43,49.49,73.65,73.74ZM151.32,199.53c-13.31-13.34-25.8-25.94-38.45-38.37-1.08-1.06-3.29-1.34-4.98-1.35-21.26-.09-42.52-.06-63.78-.05-1.27,0-2.55.17-3.83.26v39.5h111.04ZM359.75,199.36h110.99v-39.6c-23.26,0-46.16-.02-69.06.06-1.19,0-2.69.5-3.51,1.31-12.63,12.46-25.16,25-38.43,38.23ZM369.93,159.75c-15.58,0-30.86-.14-46.14.14-2.46.04-5.46,1.34-7.23,3.07-14.63,14.29-29.03,28.82-43.48,43.29-1.03,1.03-1.96,2.15-2.45,2.7,8.59,8.66,16.95,17.08,24.99,25.19,24.46-24.49,49.2-49.25,74.31-74.39ZM238.55,20.03c6.25,17.12,11.97,33,17.85,48.81,2.29,6.14,7.54,8.74,13,6.83,5.3-1.85,7.84-7.49,5.69-13.58-4.65-13.12-9.47-26.19-14.39-39.21-.45-1.19-2.11-2.67-3.27-2.73-5.93-.28-11.88-.13-18.88-.13ZM341.44,28.6c5.41,14.69,10.25,28.41,15.55,41.94,1.99,5.07,7.7,6.92,12.57,4.97,4.91-1.97,7.4-7.23,5.51-12.84-2.97-8.79-6.24-17.49-9.6-26.14-.49-1.27-2.06-2.62-3.38-2.98-6.39-1.73-12.86-3.12-20.64-4.95ZM144.04,34.73c4.63,12.5,8.79,24.36,13.46,36.02,1.94,4.85,7.46,6.61,12.23,4.85,4.63-1.71,7.59-6.65,5.94-11.73-3.68-11.32-7.91-22.46-12.03-33.97-6.54,1.61-12.61,3.1-19.6,4.82Z"/>
  <path class="cls-1" d="M89.81,48.99c-.01,5.5-4.72,10.08-10.21,9.93-5.31-.15-9.68-4.65-9.67-9.97,0-5.51,4.7-10.07,10.21-9.92,5.31.15,9.69,4.66,9.68,9.96Z"/>
</svg>